<svg width="33" height="27" viewBox="0 0 33 27" fill="none" xmlns="http://www.w3.org/2000/svg">
<path d="M11.625 1.81508C13.0801 1.35279 14.5983 1.12 16.125 1.12508C22.398 1.12508 26.667 4.87508 29.2125 8.18108C30.4875 9.84008 31.125 10.6666 31.125 13.1251C31.125 15.5851 30.4875 16.4116 29.2125 18.0691C26.667 21.3751 22.398 25.1251 16.125 25.1251C9.852 25.1251 5.583 21.3751 3.0375 18.0691C1.7625 16.4131 1.125 15.5836 1.125 13.1251C1.125 10.6651 1.7625 9.83858 3.0375 8.18108C3.81525 7.16532 4.68111 6.22015 5.625 5.35658" stroke="#66A45A" stroke-width="2.25" stroke-linecap="round"/>
<path d="M20.625 13.1251C20.625 14.3186 20.1509 15.4632 19.307 16.3071C18.4631 17.151 17.3185 17.6251 16.125 17.6251C14.9315 17.6251 13.7869 17.151 12.943 16.3071C12.0991 15.4632 11.625 14.3186 11.625 13.1251C11.625 11.9316 12.0991 10.7871 12.943 9.94314C13.7869 9.09923 14.9315 8.62512 16.125 8.62512C17.3185 8.62512 18.4631 9.09923 19.307 9.94314C20.1509 10.7871 20.625 11.9316 20.625 13.1251Z" stroke="#66A45A" stroke-width="2.25"/>
</svg>
