<svg width="36" height="36" viewBox="0 0 36 36" fill="none" xmlns="http://www.w3.org/2000/svg"><path d="M6 21L4.9395 19.9395L3.879 21L4.9395 22.0605L6 21ZM31.5 9.00005C31.5 8.60222 31.342 8.22069 31.0607 7.93939C30.7794 7.65808 30.3978 7.50005 30 7.50005C29.6022 7.50005 29.2206 7.65808 28.9393 7.93939C28.658 8.22069 28.5 8.60222 28.5 9.00005H31.5ZM12.4395 12.4395L4.9395 19.9395L7.0605 22.0605L14.5605 14.5605L12.4395 12.4395ZM4.9395 22.0605L12.4395 29.5605L14.5605 27.4395L7.0605 19.9395L4.9395 22.0605ZM6 22.5H21V19.5H6V22.5ZM31.5 12V9.00005H28.5V12H31.5ZM21 22.5C23.7848 22.5 26.4555 21.3938 28.4246 19.4247C30.3938 17.4555 31.5 14.7848 31.5 12H28.5C28.5 13.9892 27.7098 15.8968 26.3033 17.3033C24.8968 18.7099 22.9891 19.5 21 19.5V22.5Z" fill="#4F903F"/></svg>
